<?xml version="1.0" standalone="no"?><!DOCTYPE svg PUBLIC "-//W3C//DTD SVG 1.1//EN" "http://www.w3.org/Graphics/SVG/1.1/DTD/svg11.dtd"><svg t="1506588512899" class="icon" style="" viewBox="0 0 1024 1024" version="1.1" xmlns="http://www.w3.org/2000/svg" p-id="4026" xmlns:xlink="http://www.w3.org/1999/xlink" width="32" height="32"><defs><style type="text/css"></style></defs><path d="M866.089 63.768c26.496 0 48.812 9.068 66.943 27.199 18.132 18.132 27.2 40.447 27.2 66.943v708.182c0 26.496-9.068 48.811-27.2 66.942-18.131 18.132-40.447 27.2-66.943 27.2H157.91c-26.497 0-48.813-9.068-66.944-27.2-18.13-18.13-27.2-40.446-27.2-66.942V157.91c0-26.496 9.07-48.811 27.2-66.943 18.131-18.131 40.447-27.199 66.944-27.199h708.179z m-674.706 97.285c-23.009-2.095-33.124 9.063-30.33 33.47 1.39 13.951 3.137 29.114 5.226 45.505 2.095 16.39 4.01 33.3 5.757 50.732 1.74 17.433 3.66 34.347 5.75 50.734 2.091 16.39 3.836 30.86 5.234 43.414 1.39 13.248 5.4 20.92 12.026 23.008 6.624 2.096 14.12-1.041 22.49-9.412 5.581-5.581 12.205-12.03 19.876-19.353 7.672-7.321 13.946-13.423 18.83-18.306 6.274-6.275 12.898-7.671 19.872-4.184 6.973 3.485 14.994 9.766 24.063 18.829 13.248 13.253 24.581 24.236 33.992 32.95 9.419 8.72 19.005 17.957 28.77 27.723 9.764 10.46 18.307 16.91 25.627 19.348 7.325 2.445 16.214-1.215 26.672-10.984 6.973-7.671 11.856-12.897 14.644-15.686l13.602-13.602c10.458-11.158 13.947-21.27 10.458-30.332-3.485-9.068-8.368-16.74-14.643-23.015-13.947-13.945-26.154-25.626-36.612-35.044-10.461-9.412-22.317-21.094-35.57-35.04-6.275-6.276-10.458-12.032-12.55-17.259-2.093-5.233 0-10.984 6.275-17.264 5.582-5.576 11.859-12.2 18.83-19.872 6.972-7.672 13.247-14.294 18.832-19.878 8.368-8.368 10.634-16.035 6.797-23.014-3.836-6.973-13.074-11.157-27.716-12.549a7202.191 7202.191 0 0 1-45.506-4.709 2363.641 2363.641 0 0 1-49.166-5.75 2598.803 2598.803 0 0 0-48.638-5.756 19199.927 19199.927 0 0 1-42.892-4.704z m246.869 501.056c10.461-10.46 16.39-19.872 17.783-28.242 1.397-8.37-3.138-17.782-13.598-28.247-7.672-6.973-12.905-11.852-15.692-14.645l-13.599-13.597c-10.458-10.46-19.876-13.423-28.24-8.89-8.372 4.53-15.693 9.587-21.967 15.164-13.951 14.644-26.501 27.723-37.66 39.23-11.157 11.507-23.712 24.231-37.658 38.178-6.275 6.28-11.332 9.766-15.168 10.465-3.837 0.694-8.89-1.746-15.17-7.322-5.576-5.582-12.724-12.38-21.443-20.401-8.714-8.02-15.519-14.819-20.396-20.396-9.067-8.37-17.089-10.635-24.063-6.804-6.973 3.837-11.157 13.08-12.55 27.724a7609.352 7609.352 0 0 1-4.708 45.505 2747.955 2747.955 0 0 1-5.75 49.686 3555.194 3555.194 0 0 0-5.757 48.642c-1.74 15.692-2.962 29.813-3.661 42.362-2.09 23.015 8.72 33.125 32.426 30.337 13.947-1.396 29.29-3.137 46.029-5.232a2251.11 2251.11 0 0 1 50.733-5.75 2021.395 2021.395 0 0 0 50.209-5.752c16.39-2.094 31.208-3.835 44.456-5.232 12.557-1.396 19.878-5.406 21.97-12.03 2.093-6.625-1.05-14.122-9.413-22.492-4.885-5.576-10.461-11.677-16.74-18.306-6.275-6.625-11.852-12.376-16.734-17.258-6.275-6.275-8.37-12.206-6.275-17.782 2.087-5.581 7.663-12.904 16.733-21.967 13.248-13.253 25.105-25.28 35.565-36.088a2649.849 2649.849 0 0 1 30.338-30.86zM832.615 866.09c23.009 2.09 33.124-9.068 30.331-33.475-1.391-13.253-3.136-28.247-5.228-44.981a2095.479 2095.479 0 0 1-5.755-51.257 1870.308 1870.308 0 0 0-5.75-50.732c-2.09-16.39-3.836-30.86-5.233-43.41-1.39-13.253-5.4-20.924-12.026-23.014-6.629-2.095-14.12 1.043-22.491 9.412-5.581 4.883-11.681 10.46-18.306 16.739-6.624 6.276-12.38 11.852-17.263 16.735-6.275 6.275-12.899 7.846-19.872 4.709-6.972-3.136-14.993-9.591-24.063-19.353-13.247-12.555-25.278-24.057-36.088-34.521a2640.94 2640.94 0 0 1-30.854-30.332c-10.46-10.46-19.878-16.391-28.248-17.783-8.365-1.396-17.433 3.138-27.194 13.598-7.672 6.973-12.729 11.856-15.169 14.644-2.438 2.789-6.798 7.672-13.077 14.646-11.157 10.46-14.471 19.872-9.937 28.242 4.536 8.37 9.937 15.693 16.217 21.968 13.946 13.945 26.67 26.5 38.178 37.658 11.507 11.158 24.237 23.713 38.183 37.66 6.275 6.275 10.459 12.026 12.555 17.258 2.09 5.232 0.344 10.634-5.232 16.216-5.582 5.576-12.381 12.724-20.397 21.443-8.022 8.714-14.818 15.862-20.4 21.443-9.065 8.37-11.508 16.041-7.322 23.014 4.184 6.973 13.596 11.158 28.24 12.55a7249.606 7249.606 0 0 1 45.506 4.71 2356.825 2356.825 0 0 1 49.167 5.75c16.385 2.095 32.6 4.01 48.636 5.756 16.041 1.739 30.338 3.31 42.892 4.707z m31.38-674.706c1.395-12.55-0.7-21.269-6.278-26.15-5.58-4.88-14.643-6.627-27.198-5.229-13.946 1.392-29.114 3.138-45.5 5.228a1877.893 1877.893 0 0 1-50.739 5.755 1880.238 1880.238 0 0 0-50.73 5.751c-16.387 2.096-30.856 3.837-43.411 5.234-13.248 1.391-20.919 5.576-23.015 12.548-2.089 6.98 1.049 14.646 9.418 23.014 5.576 4.884 11.856 11.16 18.83 18.831 6.972 7.671 12.898 13.597 17.781 17.781 6.275 6.275 7.672 12.904 4.185 19.878s-9.766 15.342-18.828 25.105c-13.253 12.555-24.755 23.882-34.522 33.998a2387.208 2387.208 0 0 1-29.289 29.813c-9.761 10.46-15.692 19.523-17.782 27.193-2.09 7.672 1.746 16.39 11.507 26.153 6.972 7.672 12.031 12.729 15.168 15.169 3.137 2.44 7.846 6.797 14.121 13.072 11.158 11.158 21.269 14.82 30.337 10.984 9.063-3.835 16.735-8.539 23.01-14.121 13.952-14.645 25.976-27.37 36.092-38.178 10.112-10.809 22.143-23.189 36.088-37.135 6.276-6.28 12.027-10.29 17.258-12.031 5.233-1.746 10.984 0.174 17.258 5.75 5.582 5.583 12.206 11.857 19.878 18.83 7.673 6.973 14.296 13.253 19.877 18.83 8.365 9.067 16.037 11.68 23.009 7.845 6.973-3.836 11.158-13.422 12.556-28.765a6916.975 6916.975 0 0 1 4.708-45.506 2350.26 2350.26 0 0 1 5.751-49.161 5549.2 5549.2 0 0 1 6.276-47.595l4.183-42.891z m0 0" p-id="4027" fill="#4c97ff"></path></svg>