<?xml version="1.0" standalone="no"?><!DOCTYPE svg PUBLIC "-//W3C//DTD SVG 1.1//EN" "http://www.w3.org/Graphics/SVG/1.1/DTD/svg11.dtd"><svg t="1506776389485" class="icon" style="" viewBox="0 0 1024 1024" version="1.1" xmlns="http://www.w3.org/2000/svg" p-id="2391" xmlns:xlink="http://www.w3.org/1999/xlink" width="32" height="32"><defs><style type="text/css"></style></defs><path d="M916.4456 0.010234a106.082174 106.082174 0 0 1 107.544167 107.544167v808.891198a106.082174 106.082174 0 0 1-107.544167 107.544167H107.554401A106.082174 106.082174 0 0 1 0.010235 916.445599V107.554401A106.082174 106.082174 0 0 1 107.554401 0.010234zM411.999715 448.023209q39.415317 3.567262 34.619982-38.245723-2.397668-23.918197-5.84797-51.988453t-6.549726-57.953382-6.549726-57.953381-5.84797-49.590785q-2.397668-22.690123-13.74273-26.257385t-25.906506 10.760264q-9.590671 9.590671-22.690124 22.105327t-21.520529 20.701813a18.245666 18.245666 0 0 1-22.690123 4.795336 113.509096 113.509096 0 0 1-27.485459-21.52053q-22.748603-22.456204-38.947479-37.427007t-32.748632-31.637517a78.713675 78.713675 0 0 0-29.239849-22.105327q-12.573135-4.210538-30.467924 12.573136-11.69594 13.157932-16.725194 17.894788l-15.5556 15.5556q-17.894788 19.122862-11.695939 34.619981a74.327698 74.327698 0 0 0 16.725193 26.315865q23.918197 23.918197 41.812985 40.000114t40.643391 40.000115a62.456319 62.456319 0 0 1 13.859689 19.707658q3.567262 8.947394-7.193003 19.707659-9.590671 9.532191-21.520529 22.690123T175.449332 383.344662q-14.327526 14.502965-7.7778 26.491304t31.695997 14.444485l51.988453 5.380133q28.070256 2.982465 56.140511 6.549726t55.555714 6.549726l49.005988 5.380133z m-282.924784 353.685221q-17.894788 17.894788-20.292456 32.280794t15.5556 32.280793q13.157932 11.69594 17.894788 16.725194l15.5556 15.5556q17.894788 17.894788 32.280794 10.175468a132.398039 132.398039 0 0 0 25.087791-17.54391q23.918197-25.087791 43.041058-44.795449t43.041059-43.625856a39.239878 39.239878 0 0 1 17.54391-11.69594q6.549726-1.169594 17.54391 8.362597 9.532191 9.590671 24.502993 23.39188a317.544766 317.544766 0 0 1 23.39188 23.39188q15.5556 14.327526 27.485459 7.7778t13.684249-32.046876q2.397668-23.918197 5.380133-51.988452t6.549726-56.725308q3.567262-28.655053 6.549726-55.555714t4.210539-48.362712q3.567262-39.415317-37.01765-34.678461-23.918197 2.397668-52.631729 5.84797t-57.953382 6.549726q-29.23985 2.982465-57.368585 6.549726t-50.760379 5.84797q-21.520529 2.397668-25.087791 13.74273t10.760265 25.672587q8.362597 9.532191 19.122862 20.935733t19.122861 19.707658q10.760265 10.760265 7.193003 20.292456a81.871579 81.871579 0 0 1-19.122861 25.087791q-22.690123 22.690123-40.643391 40.935789t-34.678462 35.08782z m477.954581-229.35738q-39.415317-3.567262-34.619982 38.245723 2.397668 22.690123 5.84797 51.403655t6.549726 58.479699q2.982465 29.883126 6.549727 57.953382t5.847969 49.590785q2.397668 22.690123 13.74273 26.257385t25.672588-10.760265q9.590671-8.362597 20.935732-19.122861t19.707659-19.122862a19.005902 19.005902 0 0 1 22.690123-5.380132 93.567519 93.567519 0 0 1 27.485458 22.105326q22.690123 21.520529 40.93579 39.415317t35.087819 34.619982q17.894788 17.894788 32.280794 20.292456t31.052721-15.5556q13.157932-11.69594 17.543909-16.725194t14.912324-16.725194q19.122862-17.894788 11.345061-32.280794a107.719606 107.719606 0 0 0-18.538064-25.087791q-23.918197-23.918197-43.625856-43.041058t-43.625856-43.041059a62.456319 62.456319 0 0 1-14.327526-19.707659q-3.567262-8.947394 5.84797-18.538064t23.39188-24.502994 23.391879-24.502994q15.5556-14.327526 8.362597-26.257385t-32.280794-14.327526l-51.988452-5.380133q-28.070256-2.982465-56.140511-6.549726t-55.555714-6.549726l-49.005988-5.380133z m-32.456233-159.766539q-2.397668 21.520529 7.193003 29.883127t31.05272 5.84797q23.918197-2.397668 51.988453-5.84797t57.719463-6.491247q29.883126-2.982465 57.953382-6.549726t49.590784-5.84797q22.690123-2.397668 26.315865-14.327526t-10.760265-26.257385a272.690837 272.690837 0 0 1-21.520529-21.52053 240.585482 240.585482 0 0 0-20.292455-20.292455 18.245666 18.245666 0 0 1-4.795336-22.690123 132.748917 132.748917 0 0 1 21.52053-28.655053q22.690123-21.520529 39.415317-38.83052t33.450388-34.035185a81.345262 81.345262 0 0 0 20.292455-31.05272q3.567262-13.157932-13.157932-29.883127a168.713932 168.713932 0 0 0-17.54391-17.543909 198.830977 198.830977 0 0 1-16.140397-14.912324q-19.122862-19.122862-34.678461-12.573135a94.620153 94.620153 0 0 0-26.257385 16.140397q-23.918197 25.087791-40.93579 43.625855t-40.935789 42.397782a53.742844 53.742844 0 0 1-19.707659 13.74273q-8.947394 2.982465-19.707658-6.549727-9.590671-9.590671-22.690124-21.520529t-22.690123-21.520529q-14.327526-15.5556-26.257385-8.947394t-14.327526 32.865591q-2.397668 23.918197-5.380132 51.988452t-6.549727 56.140511q-3.567262 28.070256-7.193003 54.386121z" p-id="2392" fill="#4c97ff"></path></svg>